<svg xmlns="http://www.w3.org/2000/svg" width="24" height="24" viewBox="0 0 6.35 6.35">
  <g aria-label="ДСП" style="font-size:22.6772px;-inkscape-font-specification:sans-serif;text-align:center;text-anchor:middle;white-space:pre;stroke-width:2;stroke-linecap:round;stroke-linejoin:bevel;stroke-miterlimit:4.1">
    <path d="M-30.814-2.275h.591c.681 0 1.092.902 1.092 1.505v4.326c0 .736-.48 1.388-1.126 1.388-.645 0-1.144-.591-1.144-1.432V.427h-8.205v2.985c0 .835-.557 1.552-1.142 1.532-.585-.02-1.128-.602-1.128-1.532V-.81c0-.84.32-1.465.91-1.465h.508c.206-.458.406-.982.597-1.573.192-.59.37-1.229.532-1.915.17-.687.321-1.406.454-2.16.14-.76.255-1.535.343-2.325 0 0 .415-2.386.484-3.344.068-.959.892-1.583 1.234-1.583h4.844c.563 0 1.156.747 1.156 1.736zm-2.591 0v-10.198h-2.37l-.288 2.59a53.56 53.56 0 0 1-.276 2.005 36.668 36.668 0 0 1-.366 2.07c-.133.68-.28 1.326-.443 1.938a14.658 14.658 0 0 1-.509 1.595zM-21.59-1.92c.502 0 .937-.086 1.306-.256a3.21 3.21 0 0 0 .953-.686c.273-.28.533-.612.784-.88.391-.415.822-1.06 1.59-.566.768.494.508 1.664.294 2.067-.293.548-.638 1.092-1.096 1.505-.45.413-.99.75-1.617 1.008-.627.25-1.365.376-2.214.376-1.108 0-2.067-.2-2.88-.598a5.605 5.605 0 0 1-2.003-1.683c-.532-.723-.927-1.58-1.185-2.569-.251-.989-.377-2.07-.377-3.244 0-1.218.126-2.318.377-3.3.258-.982.646-1.816 1.162-2.502a5.163 5.163 0 0 1 1.982-1.595c.798-.376 1.735-.565 2.813-.565.834 0 1.565.107 2.192.322a4.792 4.792 0 0 1 1.617.907c.458.384.39.347 1.13 1.374.738 1.026.434 2.39-.38 2.718-.815.328-1.41-.765-1.658-1.146-.247-.38-.402-.583-.675-.82a3.073 3.073 0 0 0-.942-.564 3.228 3.228 0 0 0-1.229-.222c-.65 0-1.207.13-1.672.388a3.112 3.112 0 0 0-1.151 1.085c-.296.472-.517 1.04-.665 1.705-.14.657-.21 1.395-.21 2.215 0 .812.07 1.557.21 2.237.148.671.373 1.25.676 1.738.302.487.69.867 1.162 1.14.473.274 1.041.41 1.706.41zM-5.8-1.141v-11.332h-5.648v11.332c0 .78-.644 1.568-1.385 1.568s-1.294-.678-1.294-1.568V-13.19c0-.945.674-1.985 1.5-1.985h7.96c.592 0 1.458 1.073 1.458 2.225v11.809c0 1.046-.756 1.564-1.282 1.568C-5.016.43-5.8-.08-5.8-1.141z" style="-inkscape-font-specification:&quot;Liberation Sans Narrow Bold&quot;" transform="matrix(.10974 0 0 .08437 5.65 3.631)"/>
  </g>
  <path d="M2.117 1.375a1.801 1.801 0 0 0 0 3.6h2.115a1.801 1.801 0 0 0 0-3.6Zm0 .424h2.115A1.37 1.37 0 0 1 5.61 3.176c0 .766-.61 1.375-1.377 1.375H2.117C1.351 4.55.74 3.94.74 3.176a1.37 1.37 0 0 1 1.377-1.377z" style="color:#000;fill:#000;stroke-linecap:round;stroke-linejoin:round;stroke-miterlimit:4.1;-inkscape-stroke:none"/>
</svg>
