<svg xmlns="http://www.w3.org/2000/svg" width="24" height="24" viewBox="0 0 6.35 6.35">
  <path d="M4.678 1.124A1.513 1.513 0 0 0 3.345.302c-.577-.019-1.08.224-1.391.723a.24.24 0 0 0 .077.329.24.24 0 0 0 .33-.076c.234-.375.516-.51.967-.496.448.015.719.175.928.568.212.397.212.72-.02 1.095a.24.24 0 0 0 .076.33.24.24 0 0 0 .33-.076c.312-.5.309-1.064.036-1.575Z" style="color:#000;fill:#000;stroke-width:.907044;stroke-linecap:round;stroke-miterlimit:4.1;-inkscape-stroke:none"/>
  <path d="M1.587 2.886c-.385 0-.529.296-.529.529 0 .522.021 1.705.792 2.247.762.536 1.89.536 2.652 0 .77-.542.793-1.83.793-2.248 0-.222-.139-.528-.533-.528zm.123.529h2.894c.124 0 .152.075.152.143-.032.715-.108 1.355-.559 1.672-.547.385-1.495.385-2.043 0-.455-.32-.53-.968-.561-1.69 0-.035.029-.125.117-.125z" style="color:#000;fill:#000;stroke-linejoin:bevel;stroke-miterlimit:4.1;-inkscape-stroke:none"/>
  <circle cx="3.175" cy="4.157" r=".318" style="fill:#000;fill-opacity:1;stroke:none;stroke-width:.897966;stroke-linecap:round;stroke-linejoin:bevel;stroke-miterlimit:4.1;stroke-dasharray:none"/>
</svg>
