<svg xmlns="http://www.w3.org/2000/svg" width="24" height="24" viewBox="0 0 6.35 6.35">
  <path d="M3.957.743A1.513 1.513 0 0 0 2.391.75c-.5.288-.799.76-.799 1.348a.24.24 0 0 0 .24.239.24.24 0 0 0 .24-.24c0-.441.167-.705.558-.931.389-.224.703-.231 1.088-.009.39.225.561.5.561.94a.24.24 0 0 0 .24.24.24.24 0 0 0 .24-.24c0-.587-.3-1.065-.802-1.354z" style="color:#000;fill:#000;stroke-width:.907044;stroke-linecap:round;stroke-miterlimit:4.1;-inkscape-stroke:none"/>
  <path d="M1.587 2.646c-.385 0-.529.297-.529.529 0 .522.021 1.705.792 2.247.762.536 1.89.536 2.652 0 .77-.542.793-1.83.793-2.248 0-.221-.139-.528-.533-.528zm.123.529h2.894c.124 0 .152.075.152.143-.032.715-.108 1.355-.559 1.672-.547.385-1.495.385-2.043 0-.455-.32-.53-.968-.561-1.69 0-.035.029-.125.117-.125Z" style="color:#000;fill:#000;stroke-linejoin:bevel;stroke-miterlimit:4.1;-inkscape-stroke:none"/>
  <circle cx="3.175" cy="3.917" r=".318" style="fill:#000;fill-opacity:1;stroke:none;stroke-width:.897966;stroke-linecap:round;stroke-linejoin:bevel;stroke-miterlimit:4.1;stroke-dasharray:none"/>
</svg>
