<svg xmlns="http://www.w3.org/2000/svg" width="24" height="24" viewBox="0 0 6.35 6.35">
  <g aria-label="ДСП" style="font-size:22.6772px;-inkscape-font-specification:sans-serif;text-align:center;text-anchor:middle;white-space:pre;stroke-width:2;stroke-linecap:round;stroke-linejoin:bevel;stroke-miterlimit:4.1">
    <path d="M-46.66-36.765V25.95H1.56v-62.716zm4.822 6.271h38.576V19.68h-38.576z" style="color:#000;-inkscape-font-specification:sans-serif;fill:#000;stroke-linejoin:miter;-inkscape-stroke:none" transform="matrix(.10974 0 0 .08437 5.65 3.631)"/>
    <path d="M-29.714-33.861C-39.307-14.284-43.177 18.55-43.177 18.55M-7.449-33.536c-6.97 16.25-9.923 56.636-9.923 56.636" style="fill:none;fill-opacity:1;stroke:#000;stroke-width:4.12446;stroke-linecap:round;stroke-linejoin:miter;stroke-miterlimit:4.1;stroke-dasharray:none;stroke-opacity:1" transform="matrix(.10974 0 0 .08437 5.65 3.631)"/>
    <path d="M-43.579-20.654c19.961 7.348 42.502 6.184 42.502 6.184M-43.403.338c13.219 11.635 42.125 13.27 42.125 13.27" style="fill:none;fill-opacity:1;stroke:#000;stroke-width:4.12446;stroke-linecap:round;stroke-linejoin:miter;stroke-miterlimit:4.1;stroke-dasharray:none;stroke-opacity:1" transform="matrix(.10974 0 0 .08437 5.65 3.631)"/>
  </g>
</svg>
